<svg width="131" height="24" viewBox="0 0 131 24" fill="none" xmlns="http://www.w3.org/2000/svg">
<g clip-path="url(#clip0)">
<path d="M117.627 13.5467C115.184 12.9386 118.943 9.81594 117.728 8.11345C117.649 7.99076 117.538 7.89205 117.407 7.82839C117.275 7.76472 117.128 7.73861 116.982 7.75297C114.986 8.14819 115.004 11.488 115.074 12.9647C115.267 17.0081 117.065 24.2568 122.451 23.7877C130.522 23.1145 132.561 6.08087 124.101 4.24374C114.144 2.10259 113.254 21.2644 123.013 20.8865C133.101 20.5 131.07 5.09933 123.693 1.96361C114.64 -1.88438 116.39 20.8127 124.276 18.9973C131.127 17.4207 126.706 6.88 121 6.91909C113.157 6.97121 112.368 19.5749 119.78 20.0353C128.724 20.5868 128.399 5.19488 118.57 7.00595C112.969 8.03527 118.767 16.9169 123.395 17.0559C130.991 17.2861 128.623 5.76383 121.408 5.2774C113.346 4.71279 119.03 17.4859 124.197 14.9278C128 13.0472 122.131 6.20248 117.829 8.79966C112.855 11.8007 117.1 22.5369 122.43 22.6455C124.741 22.6976 125.004 19.3447 125.004 17.7508C125.004 14.5239 123.851 7.28391 119.035 7.76166C117.092 7.96144 117.28 10.4804 117.565 11.7617C118.096 14.285 121.276 20.9517 124.921 19.779C131.684 17.6075 124.781 2.64113 118.815 7.72691C114.868 11.0928 121.552 19.7095 125.947 18.5456C132.689 16.7606 129.535 4.90389 123.548 4.18728C121.517 3.94407 120.162 6.42832 119.601 7.97881C118.118 11.9137 117.5 21.5597 123.017 22.8626C129.219 24.3306 131.754 12.2568 126.25 9.0559C118.214 4.38272 113.135 18.5326 121.75 19.0233C130.645 19.5315 129.5 4.05264 120.122 6.80617C111.846 9.23831 120.732 20.0396 124.925 16.361C130.189 11.7703 120.609 3.766 116.324 8.20899C111.692 13.0342 120.526 25.9332 124.219 18.8887" stroke="white" stroke-width="0.96" stroke-linecap="round" stroke-linejoin="round"/>
<path d="M119.745 10.6191C119.307 10.6191 119.157 9.04255 118.197 9.31617C116.991 9.67664 117.447 11.631 117.758 12.4823C119.074 15.8439 123.807 19.7005 125.675 14.6321C126.057 13.7151 126.262 12.7356 126.281 11.744C126.236 10.625 125.999 9.52189 125.579 8.48229C121.789 -0.403701 109.214 1.89815 111.609 11.3878C112.754 15.9133 117.421 20.4475 122.381 19.3053C124.263 18.871 130.496 14.8884 130.276 12.7907C130.184 11.9828 127.908 10.9144 127.987 10.5192C127.987 10.5192 129.579 11.4182 129.614 11.4356" stroke="white" stroke-width="0.96" stroke-linecap="round" stroke-linejoin="round"/>
<path d="M10.797 23.0701C10.7088 23.0787 10.6206 23.0525 10.5517 22.9972C10.4828 22.942 10.4386 22.8621 10.4286 22.7748L9.42858 18.1928C9.43069 18.175 9.42906 18.1569 9.42377 18.1397C9.41849 18.1225 9.40967 18.1066 9.39787 18.0929C9.35839 18.0653 9.31 18.0529 9.26191 18.0582H2.19588C2.17817 18.0561 2.16022 18.0582 2.14346 18.0642C2.1267 18.0703 2.1116 18.0801 2.09938 18.0929C2.0643 18.1277 2.02921 18.1581 2.02921 18.1928L1.01163 22.7748C1.00909 22.8189 0.997265 22.8621 0.976908 22.9014C0.956551 22.9407 0.928114 22.9754 0.89342 23.0032C0.858727 23.031 0.818544 23.0514 0.775452 23.0629C0.73236 23.0744 0.687311 23.0769 0.643195 23.0701H0.30985C0.265783 23.0738 0.221485 23.0666 0.180918 23.0492C0.14035 23.0317 0.104779 23.0046 0.0773864 22.9703C0.0408132 22.9377 0.0143743 22.8955 0.0011682 22.8485C-0.0120379 22.8016 -0.011464 22.7519 0.00282254 22.7053L5.0951 0.299245C5.10399 0.212011 5.14713 0.131725 5.21522 0.0756748C5.28331 0.0196249 5.37091 -0.00770577 5.45915 -0.000430311H5.92846C5.97227 -0.00461156 6.01648 -0.000161763 6.05855 0.0126647C6.10061 0.0254913 6.13969 0.0464357 6.17354 0.0742963C6.20738 0.102157 6.23532 0.13638 6.25574 0.174988C6.27616 0.213596 6.28866 0.25583 6.29251 0.299245L11.4286 22.7053V22.7748C11.4338 22.8152 11.4294 22.8562 11.4159 22.8946C11.4025 22.9331 11.3802 22.9679 11.351 22.9965C11.3217 23.025 11.2862 23.0465 11.2472 23.0593C11.2082 23.0721 11.1667 23.0758 11.126 23.0701H10.797ZM2.27483 17.0376C2.23974 17.0723 2.27483 17.0723 2.30992 17.1027C2.34501 17.1331 2.37571 17.1722 2.40641 17.1722H9.02944C9.06453 17.1722 9.09962 17.1375 9.13032 17.1027C9.16103 17.068 9.19611 17.0723 9.16541 17.0376L5.77056 1.8367C5.73547 1.77156 5.73547 1.73681 5.70477 1.73681C5.67407 1.73681 5.66968 1.77156 5.63459 1.8367L2.27483 17.0376Z" fill="white"/>
<path d="M18.8164 6.42702C19.3144 6.40714 19.8086 6.5212 20.2463 6.7571C20.2849 6.77585 20.3192 6.80221 20.3472 6.83456C20.3751 6.86691 20.3961 6.90457 20.4088 6.94523C20.4216 6.98589 20.4258 7.0287 20.4212 7.07103C20.4166 7.11336 20.4034 7.15432 20.3823 7.19141L20.2463 7.59097C20.1805 7.82116 20.0489 7.85156 19.8077 7.75167C19.4402 7.59224 19.0421 7.5137 18.641 7.52148C18.1539 7.54188 17.6797 7.68248 17.2615 7.93051C16.8433 8.17854 16.4942 8.52612 16.2462 8.94168C15.5772 9.9959 15.2412 11.2238 15.2812 12.4683V22.7484C15.2812 22.9786 15.1804 23.0785 14.9479 23.0785H14.6145C14.3821 23.0785 14.2812 22.9786 14.2812 22.7484V6.89607C14.2812 6.66589 14.3821 6.566 14.6145 6.566H14.9479C15.1804 6.566 15.2812 6.66589 15.2812 6.89607V9.03723C15.2812 9.10672 15.3119 9.13712 15.347 9.13712C15.3821 9.13712 15.4128 9.10672 15.4479 9.00682C15.7304 8.26495 16.2 7.60707 16.812 7.09586C17.3842 6.6542 18.091 6.41834 18.8164 6.42702Z" fill="white"/>
<path d="M28.2378 7.08812C28.2378 7.3183 28.1369 7.4182 27.9044 7.4182H25.0754C24.9745 7.4182 24.9394 7.44859 24.9394 7.54848V18.9187C24.9394 20.1348 25.1412 20.96 25.5754 21.4204C26.0096 21.8807 26.6062 22.1413 27.5053 22.1413H27.8693C28.1018 22.1413 28.2027 22.2412 28.2027 22.4714V22.7363C28.2027 22.9665 28.1018 23.0664 27.8693 23.0664H27.3693C26.2377 23.0664 25.3737 22.7711 24.8078 22.1978C24.242 21.6245 23.9306 20.5517 23.9306 19.0013V7.54848C23.9306 7.44859 23.8999 7.4182 23.799 7.4182H22.413C22.1806 7.4182 22.0797 7.3183 22.0797 7.08812V6.88834C22.0797 6.65815 22.1806 6.55826 22.413 6.55826H23.7771C23.878 6.55826 23.9087 6.52786 23.9087 6.42797V2.73633C23.9087 2.50615 24.0096 2.40625 24.242 2.40625H24.6105C24.8429 2.40625 24.9394 2.50615 24.9394 2.73633V6.42797C24.9394 6.52786 24.9745 6.55826 25.0754 6.55826H27.9044C28.1369 6.55826 28.2378 6.65815 28.2378 6.88834V7.08812Z" fill="white"/>
<path d="M32.7292 2.86674C32.5391 2.8754 32.3492 2.8447 32.1718 2.77661C31.9944 2.70852 31.8332 2.60453 31.6987 2.47129C31.5641 2.33805 31.4591 2.17848 31.3903 2.00279C31.3216 1.82709 31.2906 1.63912 31.2993 1.45089C31.2935 1.26819 31.326 1.08627 31.3947 0.916599C31.4634 0.746929 31.5668 0.593173 31.6984 0.465005C31.8626 0.295066 32.0667 0.168141 32.2926 0.0956134C32.5185 0.0230861 32.759 0.00722985 32.9926 0.0494692C33.2262 0.0917085 33.4456 0.190721 33.631 0.33762C33.8165 0.484519 33.9621 0.674703 34.055 0.891112C34.1479 1.10752 34.185 1.34338 34.1631 1.57752C34.1413 1.81165 34.061 2.03675 33.9296 2.23259C33.7981 2.42843 33.6196 2.58889 33.4101 2.69957C33.2006 2.81026 32.9666 2.8677 32.7292 2.86674ZM32.5625 23.0709C32.33 23.0709 32.2292 22.971 32.2292 22.7408V6.88846C32.2292 6.65828 32.33 6.55838 32.5625 6.55838H32.9002C33.1327 6.55838 33.2336 6.65828 33.2336 6.88846V22.7408C33.2336 22.971 33.1327 23.0709 32.9002 23.0709H32.5625Z" fill="white"/>
<path d="M42.2164 23.2013C41.048 23.2346 39.9113 22.8227 39.0408 22.0503C38.6385 21.6956 38.3196 21.2578 38.1066 20.7678C37.8937 20.2778 37.7919 19.7475 37.8083 19.2143V19.0493C37.8083 18.8191 37.9092 18.7192 38.1417 18.7192H38.4399C38.6768 18.7192 38.7733 18.8191 38.7733 19.0493V19.1796C38.7658 19.5993 38.8479 20.0159 39.0142 20.402C39.1805 20.7882 39.4272 21.1353 39.7382 21.4206C40.0735 21.7383 40.4712 21.9843 40.9065 22.1435C41.3419 22.3026 41.8056 22.3714 42.269 22.3457C42.7166 22.3659 43.1635 22.2941 43.5817 22.1349C43.9999 21.9757 44.3803 21.7325 44.6989 21.4206C45.0047 21.094 45.2417 20.7103 45.3961 20.292C45.5505 19.8736 45.6191 19.429 45.598 18.9841C45.6256 18.3531 45.4506 17.7298 45.098 17.2034C44.7714 16.7483 44.3514 16.3664 43.8655 16.0829C43.4006 15.818 42.7339 15.5227 41.9049 15.1622C41.1726 14.8668 40.4606 14.5244 39.7733 14.1372C39.2266 13.8085 38.7607 13.3634 38.4092 12.8343C38.0212 12.1774 37.8352 11.4227 37.8741 10.6627C37.8396 10.0972 37.9256 9.5307 38.1266 9.00019C38.3276 8.46969 38.6391 7.98699 39.0408 7.58347C39.4567 7.19231 39.948 6.88836 40.4854 6.68984C41.0228 6.49132 41.5951 6.40233 42.1681 6.42821C42.7436 6.40353 43.318 6.49602 43.8559 6.69996C44.3938 6.9039 44.8837 7.21495 45.2954 7.61387C45.6841 8.01043 45.9878 8.4807 46.1883 8.99642C46.3888 9.51215 46.4819 10.0627 46.4621 10.615V10.7105C46.4621 10.9407 46.3612 11.0406 46.1288 11.0406H45.8612C45.6287 11.0406 45.5279 10.9407 45.5279 10.7105V10.615C45.546 10.1787 45.474 9.74345 45.3164 9.33571C45.1588 8.92798 44.9188 8.55637 44.6112 8.24362C44.283 7.93525 43.8959 7.69494 43.4725 7.53683C43.0492 7.37871 42.5983 7.30597 42.1462 7.32289C41.704 7.30053 41.2621 7.371 40.8493 7.52968C40.4366 7.68836 40.0624 7.93167 39.7514 8.24362C39.4485 8.56606 39.2131 8.94467 39.0588 9.35764C38.9045 9.7706 38.8343 10.2097 38.8522 10.6497C38.8345 11.2338 38.9966 11.8094 39.3171 12.3001C39.6002 12.7472 39.9885 13.1198 40.4488 13.3859C41.0402 13.7145 41.6526 14.0046 42.2821 14.2545C43.061 14.5641 43.8172 14.9269 44.5454 15.3403C45.1902 15.6988 45.7217 16.2278 46.0803 16.8682C46.439 17.5087 46.6106 18.2352 46.5761 18.9667C46.6031 19.5326 46.5102 20.0978 46.3032 20.6259C46.0962 21.154 45.7798 21.6333 45.3744 22.033C44.5193 22.8209 43.3837 23.2411 42.2164 23.2013Z" fill="white"/>
<path d="M55.0589 7.08812C55.0589 7.3183 54.9624 7.4182 54.7299 7.4182H51.9009C51.8 7.4182 51.7649 7.4486 51.7649 7.54849V18.9187C51.7649 20.1348 51.9667 20.96 52.3965 21.4204C52.8263 21.8807 53.4316 22.1457 54.3264 22.1457H54.6948C54.9273 22.1457 55.0282 22.2456 55.0282 22.4757V22.7407C55.0282 22.9709 54.9273 23.0708 54.6948 23.0708H54.1948C53.0632 23.0708 52.1991 22.7754 51.6333 22.2021C51.0675 21.6288 50.7561 20.5561 50.7561 19.0056V7.54849C50.7561 7.4486 50.721 7.4182 50.6245 7.4182H49.2604C49.0236 7.4182 48.9271 7.3183 48.9271 7.08812V6.88834C48.9271 6.65815 49.0236 6.55826 49.2604 6.55826H50.6245C50.721 6.55826 50.7561 6.52786 50.7561 6.42797V2.73633C50.7561 2.50615 50.857 2.40625 51.0894 2.40625H51.4535C51.6859 2.40625 51.7868 2.50615 51.7868 2.73633V6.42797C51.7868 6.52786 51.8219 6.55826 51.9228 6.55826H54.7518C54.9843 6.55826 55.0808 6.65815 55.0808 6.88834L55.0589 7.08812Z" fill="white"/>
<path d="M57.9011 6.42795C57.6686 6.42795 57.5721 6.32806 57.5721 6.09787L57.423 0.425777C57.423 0.195592 57.5238 0.0957031 57.7563 0.0957031H58.1949C58.4274 0.0957031 58.5283 0.195592 58.5283 0.425777L58.3923 6.09353C58.3923 6.32372 58.2914 6.42361 58.059 6.42361L57.9011 6.42795Z" fill="white"/>
<path d="M64.9803 23.2005C63.8044 23.2395 62.6588 22.8272 61.7828 22.0496C61.3804 21.6948 61.0616 21.257 60.8486 20.767C60.6357 20.277 60.5338 19.7467 60.5503 19.2135V19.0485C60.5503 18.8183 60.6512 18.7184 60.8836 18.7184H61.1863C61.4187 18.7184 61.5152 18.8183 61.5152 19.0485V19.1788C61.5078 19.5989 61.5904 20.0159 61.7574 20.4021C61.9245 20.7884 62.1723 21.1353 62.4846 21.4198C62.8187 21.7378 63.2156 21.9841 63.6503 22.1433C64.085 22.3025 64.5482 22.3711 65.011 22.3449C65.4585 22.3651 65.9055 22.2934 66.3237 22.1342C66.7419 21.975 67.1223 21.7318 67.4409 21.4198C67.7467 21.0932 67.9837 20.7095 68.1381 20.2912C68.2924 19.8729 68.3611 19.4283 68.34 18.9834C68.3676 18.3524 68.1925 17.729 67.84 17.2027C67.5134 16.7475 67.0934 16.3657 66.6075 16.0822C66.1426 15.8172 65.4759 15.5219 64.6469 15.1614C63.915 14.8652 63.203 14.5228 62.5153 14.1365C61.9686 13.8077 61.5027 13.3626 61.1512 12.8335C60.7675 12.1751 60.5833 11.4213 60.6205 10.662C60.5921 10.097 60.6841 9.53245 60.8904 9.00495C61.0967 8.47746 61.4127 7.99882 61.8179 7.60008C62.2337 7.20892 62.7251 6.90496 63.2625 6.70644C63.7999 6.50792 64.3722 6.41893 64.9452 6.44481C65.5206 6.42013 66.0951 6.51263 66.633 6.71657C67.1709 6.92051 67.6608 7.23155 68.0725 7.63048C68.4612 8.02703 68.7649 8.4973 68.9654 9.01303C69.1659 9.52875 69.259 10.0793 69.2392 10.6316V10.7271C69.2392 10.9573 69.1383 11.0572 68.9058 11.0572H68.6383C68.4058 11.0572 68.3049 10.9573 68.3049 10.7271V10.6316C68.3238 10.1915 68.2509 9.75238 68.0909 9.34144C67.931 8.93049 67.6873 8.55654 67.3751 8.24286C67.0469 7.93448 66.6598 7.69418 66.2365 7.53606C65.8132 7.37794 65.3622 7.30521 64.9101 7.32212C64.4679 7.29976 64.026 7.37024 63.6132 7.52892C63.2005 7.6876 62.8263 7.9309 62.5153 8.24286C61.9053 8.89513 61.5818 9.76059 61.6161 10.6489C61.5984 11.233 61.7605 11.8086 62.081 12.2993C62.3641 12.7465 62.7524 13.119 63.2127 13.3851C63.8041 13.7137 64.4165 14.0039 65.0461 14.2537C65.8249 14.5633 66.5812 14.9261 67.3093 15.3395C67.9542 15.698 68.4856 16.227 68.8442 16.8675C69.2029 17.5079 69.3745 18.2345 69.3401 18.966C69.3682 19.532 69.2757 20.0975 69.0686 20.6257C68.8616 21.154 68.5446 21.6332 68.1383 22.0322C67.7157 22.4236 67.2191 22.7283 66.6772 22.9288C66.1352 23.1293 65.5585 23.2217 64.9803 23.2005Z" fill="white"/>
<path d="M88.81 0.330074C88.81 0.0998891 88.9065 0 89.139 0H89.4811C89.7135 0 89.8144 0.0998891 89.8144 0.330074V22.7405C89.8144 22.9707 89.7135 23.0706 89.4811 23.0706H89.1477C88.9153 23.0706 88.8188 22.9707 88.8188 22.7405V12.0955C88.8188 11.9957 88.7837 11.9653 88.6828 11.9653H81.2527C81.1518 11.9653 81.1211 11.9957 81.1211 12.0955V22.7405C81.1211 22.9707 81.0203 23.0706 80.7878 23.0706H80.4545C80.222 23.0706 80.1211 22.9707 80.1211 22.7405V0.330074C80.1211 0.0998891 80.222 0 80.4545 0H80.7878C81.0203 0 81.1211 0.0998891 81.1211 0.330074V10.9403C81.1211 11.0402 81.1518 11.0749 81.2527 11.0749H88.674C88.7749 11.0749 88.81 11.0402 88.81 10.9403V0.330074Z" fill="white"/>
<path d="M103.955 14.6964C103.955 14.9309 103.854 15.0265 103.622 15.0265H95.9024C95.8015 15.0265 95.7664 15.0612 95.7664 15.1611V18.5531C95.7163 19.5714 96.0759 20.5678 96.7664 21.324C97.0934 21.6811 97.4952 21.9632 97.9436 22.1508C98.3921 22.3383 98.8765 22.4267 99.363 22.4097C100.171 22.4196 100.959 22.1526 101.591 21.6541C102.222 21.1427 102.657 20.4331 102.824 19.6432C102.842 19.5596 102.889 19.4846 102.956 19.4303C103.022 19.376 103.106 19.3454 103.192 19.3435H103.517C103.616 19.3412 103.711 19.377 103.784 19.4434C103.828 19.5355 103.84 19.6391 103.819 19.7387C103.654 20.7586 103.121 21.6845 102.319 22.3446C101.482 23.0109 100.433 23.3617 99.3586 23.3348C98.7435 23.3565 98.1309 23.2466 97.5625 23.0128C96.9941 22.779 96.4832 22.4266 96.0646 21.9798C95.6213 21.5274 95.2759 20.9901 95.0496 20.4009C94.8233 19.8117 94.721 19.1829 94.7488 18.5531V11.0742C94.7273 10.4452 94.8326 9.81812 95.0585 9.22977C95.2844 8.64142 95.6264 8.10354 96.0646 7.64754C96.4834 7.20123 96.9944 6.84956 97.5629 6.61647C98.1313 6.38338 98.7438 6.27436 99.3586 6.29683C99.9781 6.27833 100.595 6.38903 101.168 6.62172C101.742 6.85442 102.259 7.20391 102.688 7.64754C103.54 8.58546 103.992 9.81336 103.951 11.0742L103.955 14.6964ZM99.363 7.21757C98.8796 7.20305 98.3986 7.28952 97.9512 7.47136C97.5038 7.6532 97.1001 7.92633 96.7664 8.27294C96.0802 9.04379 95.7219 10.0476 95.7664 11.0742V14.0406C95.7664 14.1361 95.8015 14.1709 95.9024 14.1709H102.824C102.925 14.1709 102.955 14.1361 102.955 14.0406V11.0742C103.001 10.0482 102.644 9.04445 101.96 8.27294C101.625 7.92577 101.221 7.65233 100.773 7.47047C100.325 7.28861 99.8427 7.20243 99.3586 7.21757H99.363Z" fill="white"/>
<path d="M112.727 6.42785C113.227 6.40869 113.722 6.52269 114.162 6.75793C114.2 6.77753 114.233 6.80441 114.26 6.83699C114.287 6.86958 114.308 6.9072 114.32 6.94766C114.332 6.98812 114.336 7.0306 114.332 7.0726C114.327 7.1146 114.314 7.15528 114.293 7.19224L114.162 7.5918C114.092 7.82199 113.96 7.85239 113.723 7.7525C113.356 7.59307 112.958 7.51453 112.556 7.52231C112.069 7.54271 111.595 7.68331 111.177 7.93134C110.759 8.17937 110.41 8.52695 110.162 8.94251C109.493 9.99673 109.157 11.2247 109.197 12.4691V22.7492C109.197 22.9794 109.096 23.0793 108.863 23.0793H108.53C108.298 23.0793 108.197 22.9794 108.197 22.7492V6.8969C108.197 6.66672 108.298 6.56683 108.53 6.56683H108.863C109.096 6.56683 109.197 6.66672 109.197 6.8969V9.03806C109.197 9.10755 109.232 9.13795 109.262 9.13795C109.293 9.13795 109.328 9.10754 109.363 9.00765C109.646 8.26578 110.115 7.6079 110.727 7.09669C111.298 6.65596 112.004 6.42016 112.727 6.42785Z" fill="white"/>
</g>
<defs>
<clipPath id="clip0">
<rect width="130.5" height="24" fill="white"/>
</clipPath>
</defs>
</svg>
