<svg width="174" height="32" viewBox="0 0 174 32" fill="none" xmlns="http://www.w3.org/2000/svg">
<g clip-path="url(#clip0)">
<path d="M156.836 18.0615C153.578 17.2508 158.59 13.0872 156.97 10.8172C156.866 10.6536 156.718 10.522 156.542 10.4372C156.366 10.3523 156.17 10.3174 155.976 10.3366C153.315 10.8636 153.338 15.3167 153.432 17.2856C153.689 22.6768 156.087 32.3417 163.269 31.7163C174.029 30.8187 176.749 8.10713 165.468 5.65761C152.192 2.80275 151.005 28.3518 164.017 27.848C177.468 27.3326 174.76 6.7984 164.924 2.61744C152.853 -2.51322 155.186 27.7495 165.701 25.329C174.836 23.2269 168.941 9.17264 161.333 9.22475C150.876 9.29424 149.824 26.0992 159.707 26.713C171.631 27.4484 171.199 6.9258 158.093 9.34057C150.625 10.713 158.356 22.5552 164.526 22.7405C174.655 23.0474 171.497 7.6844 161.877 7.03583C151.128 6.28303 158.707 23.3138 165.596 19.903C170.667 17.3956 162.842 8.26927 157.105 11.7322C150.473 15.7336 156.134 30.0485 163.239 30.1933C166.321 30.2628 166.672 25.7923 166.672 23.667C166.672 19.3645 165.134 9.71118 158.713 10.3482C156.122 10.6146 156.374 13.9732 156.754 15.6815C157.461 19.046 161.701 27.9349 166.561 26.3713C175.579 23.4759 166.374 3.52081 158.42 10.3018C153.157 14.7897 162.07 26.2787 167.93 24.7268C176.918 22.3467 172.713 6.53782 164.731 5.58234C162.023 5.25806 160.216 8.57039 159.467 10.6377C157.491 15.8842 156.666 28.7456 164.023 30.4828C172.292 32.4401 175.673 16.3417 168.333 12.0738C157.619 5.84292 150.847 24.7094 162.333 25.3637C174.193 26.0413 172.667 5.40282 160.163 9.0742C149.128 12.317 160.976 26.7188 166.567 21.814C173.585 15.6931 160.812 5.02063 155.099 10.9446C148.923 17.3782 160.701 34.5769 165.625 25.1842" stroke="black" stroke-width="0.96" stroke-linecap="round" stroke-linejoin="round"/>
<path d="M159.66 14.1585C159.076 14.1585 158.877 12.0564 157.596 12.4213C155.988 12.9019 156.596 15.5078 157.011 16.6428C158.766 21.1248 165.076 26.2671 167.567 19.5092C168.076 18.2865 168.349 16.9805 168.374 15.6583C168.315 14.1664 167.999 12.6956 167.438 11.3094C162.386 -0.538563 145.619 2.53057 148.812 15.1835C150.338 21.2175 156.561 27.2631 163.175 25.7401C165.684 25.161 173.994 19.8509 173.702 17.0539C173.579 15.9768 170.544 14.5523 170.649 14.0253C170.649 14.0253 172.772 15.224 172.819 15.2472" stroke="black" stroke-width="0.96" stroke-linecap="round" stroke-linejoin="round"/>
<path d="M14.3954 30.7601C14.2777 30.7715 14.1602 30.7366 14.0683 30.6629C13.9764 30.5892 13.9174 30.4827 13.9041 30.3663L12.5708 24.257C12.5736 24.2332 12.5714 24.2091 12.5644 24.1862C12.5573 24.1633 12.5456 24.142 12.5298 24.1238C12.4772 24.0869 12.4127 24.0704 12.3485 24.0775H2.92717C2.90356 24.0747 2.87962 24.0775 2.85727 24.0855C2.83493 24.0936 2.8148 24.1067 2.79851 24.1238C2.75172 24.1702 2.70494 24.2107 2.70494 24.257L1.34817 30.3663C1.34478 30.4252 1.32902 30.4827 1.30187 30.5351C1.27473 30.5876 1.23681 30.6338 1.19056 30.6709C1.1443 30.708 1.09072 30.7351 1.03326 30.7504C0.975809 30.7658 0.915743 30.7691 0.856922 30.7601H0.412462C0.353707 30.765 0.294642 30.7554 0.240552 30.7322C0.186462 30.7089 0.139034 30.6728 0.102511 30.6269C0.0537462 30.5835 0.0184943 30.5272 0.000886207 30.4646C-0.0167219 30.4021 -0.0159567 30.3358 0.00309199 30.2737L6.79279 0.398912C6.80465 0.2826 6.86217 0.175551 6.95295 0.100818C7.04374 0.0260852 7.16054 -0.0103557 7.27819 -0.000655128H7.90394C7.96236 -0.00623012 8.02131 -0.000297064 8.07739 0.016805C8.13348 0.033907 8.18559 0.0618329 8.23071 0.0989804C8.27584 0.136128 8.31309 0.181758 8.34032 0.233236C8.36754 0.284713 8.3842 0.341026 8.38934 0.398912L15.2375 30.2737V30.3663C15.2443 30.4202 15.2385 30.4748 15.2206 30.5261C15.2026 30.5773 15.173 30.6238 15.134 30.6619C15.0949 30.7 15.0476 30.7286 14.9956 30.7457C14.9435 30.7627 14.8883 30.7677 14.834 30.7601H14.3954ZM3.03243 22.7167C2.98565 22.763 3.03243 22.763 3.07922 22.8035C3.126 22.8441 3.16694 22.8962 3.20788 22.8962H12.0386C12.0854 22.8962 12.1322 22.8499 12.1731 22.8035C12.214 22.7572 12.2608 22.763 12.2199 22.7167L7.69341 2.44885C7.64662 2.36199 7.64662 2.31567 7.60569 2.31567C7.56475 2.31567 7.5589 2.36199 7.51212 2.44885L3.03243 22.7167Z" fill="black"/>
<path d="M25.0885 8.5704C25.7525 8.54389 26.4113 8.69598 26.995 9.0105C27.0465 9.0355 27.0923 9.07065 27.1295 9.11378C27.1668 9.15692 27.1948 9.20713 27.2117 9.26135C27.2287 9.31556 27.2343 9.37264 27.2282 9.42908C27.2221 9.48552 27.2045 9.54014 27.1763 9.58958L26.995 10.1223C26.9073 10.4292 26.7319 10.4698 26.4102 10.3366C25.9202 10.124 25.3895 10.0193 24.8546 10.0297C24.2052 10.0569 23.5729 10.2444 23.0153 10.5751C22.4576 10.9058 21.9923 11.3692 21.6615 11.9233C20.7695 13.3289 20.3215 14.9662 20.3749 16.6254V30.3323C20.3749 30.6392 20.2404 30.7724 19.9305 30.7724H19.486C19.1761 30.7724 19.0415 30.6392 19.0415 30.3323V9.1958C19.0415 8.88889 19.1761 8.7557 19.486 8.7557H19.9305C20.2404 8.7557 20.3749 8.88889 20.3749 9.1958V12.0507C20.3749 12.1433 20.4159 12.1839 20.4626 12.1839C20.5094 12.1839 20.5504 12.1433 20.5972 12.0101C20.9738 11.021 21.5999 10.1438 22.4159 9.46218C23.1788 8.8733 24.1213 8.55883 25.0885 8.5704Z" fill="black"/>
<path d="M37.6504 9.45062C37.6504 9.75753 37.5159 9.89073 37.2059 9.89073H33.4339C33.2994 9.89073 33.2526 9.93126 33.2526 10.0644V25.2248C33.2526 26.8462 33.5216 27.9465 34.1006 28.5603C34.6795 29.1741 35.4749 29.5216 36.6737 29.5216H37.1591C37.4691 29.5216 37.6036 29.6547 37.6036 29.9617V30.3149C37.6036 30.6218 37.4691 30.755 37.1591 30.755H36.4925C34.9836 30.755 33.8315 30.3612 33.0771 29.5968C32.3227 28.8325 31.9075 27.4021 31.9075 25.3348V10.0644C31.9075 9.93126 31.8666 9.89073 31.7321 9.89073H29.884C29.5741 9.89073 29.4396 9.75753 29.4396 9.45062V9.18425C29.4396 8.87733 29.5741 8.74414 29.884 8.74414H31.7028C31.8373 8.74414 31.8783 8.70361 31.8783 8.57042V3.64824C31.8783 3.34132 32.0128 3.20813 32.3227 3.20813H32.814C33.1239 3.20813 33.2526 3.34132 33.2526 3.64824V8.57042C33.2526 8.70361 33.2994 8.74414 33.4339 8.74414H37.2059C37.5159 8.74414 37.6504 8.87733 37.6504 9.18425V9.45062Z" fill="black"/>
<path d="M43.6389 3.82193C43.3854 3.83346 43.1323 3.79253 42.8957 3.70175C42.6592 3.61096 42.4443 3.47231 42.2649 3.29466C42.0855 3.11701 41.9455 2.90425 41.8538 2.66999C41.7621 2.43572 41.7207 2.1851 41.7324 1.93413C41.7247 1.69052 41.768 1.44796 41.8596 1.22174C41.9512 0.995508 42.0891 0.790501 42.2646 0.61961C42.4834 0.393024 42.7556 0.223791 43.0568 0.127088C43.358 0.0303847 43.6787 0.00924307 43.9902 0.0655622C44.3017 0.121881 44.5941 0.253898 44.8414 0.449763C45.0886 0.645629 45.2829 0.899207 45.4067 1.18775C45.5305 1.4763 45.5801 1.79077 45.5509 2.10296C45.5217 2.41514 45.4146 2.71526 45.2394 2.97638C45.0642 3.23751 44.8262 3.45146 44.5468 3.59904C44.2675 3.74662 43.9555 3.8232 43.6389 3.82193ZM43.4167 30.7608C43.1067 30.7608 42.9722 30.6276 42.9722 30.3207V9.18422C42.9722 8.87731 43.1067 8.74411 43.4167 8.74411H43.867C44.1769 8.74411 44.3114 8.87731 44.3114 9.18422V30.3207C44.3114 30.6276 44.1769 30.7608 43.867 30.7608H43.4167Z" fill="black"/>
<path d="M56.2884 30.9345C54.7306 30.979 53.215 30.4297 52.0544 29.3999C51.5179 28.9269 51.0927 28.3432 50.8088 27.6899C50.5249 27.0365 50.3891 26.3295 50.411 25.6185V25.3985C50.411 25.0916 50.5455 24.9584 50.8555 24.9584H51.2532C51.569 24.9584 51.6976 25.0916 51.6976 25.3985V25.5722C51.6877 26.1319 51.7972 26.6873 52.0189 27.2022C52.2406 27.7171 52.5695 28.1799 52.9842 28.5603C53.4313 28.9839 53.9615 29.3119 54.542 29.5241C55.1225 29.7363 55.7408 29.8281 56.3586 29.7937C56.9554 29.8207 57.5513 29.725 58.1089 29.5127C58.6665 29.3004 59.1736 28.9762 59.5985 28.5603C60.0062 28.1248 60.3222 27.6132 60.528 27.0554C60.7339 26.4976 60.8254 25.9048 60.7973 25.3116C60.8341 24.4703 60.6007 23.6392 60.1306 22.9374C59.6951 22.3305 59.1351 21.8214 58.4873 21.4434C57.8674 21.0901 56.9785 20.6964 55.8732 20.2157C54.8968 19.8219 53.9474 19.3654 53.031 18.8491C52.3021 18.4108 51.6808 17.8173 51.2122 17.1119C50.6948 16.2361 50.4469 15.2298 50.4987 14.2164C50.4527 13.4623 50.5674 12.7071 50.8354 11.9997C51.1034 11.2924 51.5187 10.6488 52.0544 10.1108C52.6088 9.58922 53.264 9.18395 53.9805 8.91925C54.697 8.65456 55.4601 8.53591 56.2241 8.57042C56.9913 8.53751 57.7573 8.66084 58.4745 8.93276C59.1917 9.20468 59.8449 9.61941 60.3938 10.1513C60.9121 10.68 61.317 11.3071 61.5843 11.9947C61.8517 12.6823 61.9758 13.4164 61.9494 14.1528V14.2801C61.9494 14.5871 61.8149 14.7202 61.505 14.7202H61.1482C60.8383 14.7202 60.7038 14.5871 60.7038 14.2801V14.1528C60.7279 13.5711 60.632 12.9907 60.4218 12.4471C60.2117 11.9034 59.8917 11.408 59.4815 10.991C59.0439 10.5798 58.5278 10.2594 57.9633 10.0486C57.3989 9.83775 56.7976 9.74077 56.1948 9.76332C55.6053 9.73351 55.016 9.82747 54.4657 10.039C53.9154 10.2506 53.4165 10.575 53.0018 10.991C52.598 11.4209 52.2841 11.9257 52.0784 12.4763C51.8726 13.0269 51.779 13.6124 51.8029 14.1991C51.7792 14.9779 51.9954 15.7454 52.4228 16.3996C52.8002 16.9958 53.3179 17.4925 53.9316 17.8473C54.7202 18.2854 55.5368 18.6723 56.3761 19.0054C57.4146 19.4183 58.4229 19.902 59.3938 20.4531C60.2536 20.9311 60.9622 21.6365 61.4404 22.4904C61.9185 23.3444 62.1474 24.3131 62.1015 25.2885C62.1375 26.0429 62.0135 26.7965 61.7375 27.5006C61.4615 28.2048 61.0397 28.8439 60.4991 29.3768C59.3591 30.4274 57.8449 30.9876 56.2884 30.9345Z" fill="black"/>
<path d="M73.4119 9.45062C73.4119 9.75753 73.2832 9.89073 72.9732 9.89073H69.2012C69.0667 9.89073 69.0199 9.93125 69.0199 10.0644V25.2248C69.0199 26.8462 69.2889 27.9465 69.862 28.5603C70.4351 29.1741 71.2422 29.5273 72.4352 29.5273H72.9265C73.2364 29.5273 73.3709 29.6605 73.3709 29.9675V30.3207C73.3709 30.6276 73.2364 30.7608 72.9265 30.7608H72.2598C70.7509 30.7608 69.5989 30.367 68.8444 29.6026C68.09 28.8382 67.6748 27.4079 67.6748 25.3406V10.0644C67.6748 9.93125 67.628 9.89073 67.4994 9.89073H65.6806C65.3648 9.89073 65.2361 9.75753 65.2361 9.45062V9.18425C65.2361 8.87733 65.3648 8.74414 65.6806 8.74414H67.4994C67.628 8.74414 67.6748 8.70361 67.6748 8.57042V3.64824C67.6748 3.34132 67.8093 3.20813 68.1193 3.20813H68.6047C68.9146 3.20813 69.0491 3.34132 69.0491 3.64824V8.57042C69.0491 8.70361 69.0959 8.74414 69.2304 8.74414H73.0025C73.3124 8.74414 73.4411 8.87733 73.4411 9.18425L73.4119 9.45062Z" fill="black"/>
<path d="M77.2014 8.57041C76.8915 8.57041 76.7628 8.43721 76.7628 8.1303L76.564 0.567509C76.564 0.260596 76.6985 0.127411 77.0084 0.127411H77.5932C77.9032 0.127411 78.0377 0.260596 78.0377 0.567509L77.8564 8.12451C77.8564 8.43143 77.7219 8.56461 77.4119 8.56461L77.2014 8.57041Z" fill="black"/>
<path d="M86.6403 30.9345C85.0726 30.9865 83.5451 30.4367 82.377 29.3999C81.8406 28.9269 81.4154 28.3432 81.1315 27.6898C80.8475 27.0365 80.7118 26.3295 80.7337 25.6185V25.3985C80.7337 25.0916 80.8682 24.9584 81.1782 24.9584H81.5817C81.8916 24.9584 82.0203 25.0916 82.0203 25.3985V25.5722C82.0104 26.1324 82.1204 26.6883 82.3432 27.2033C82.566 27.7184 82.8964 28.1808 83.3127 28.5603C83.7583 28.9843 84.2875 29.3126 84.8671 29.5249C85.4467 29.7371 86.0643 29.8286 86.6813 29.7937C87.278 29.8207 87.874 29.725 88.4316 29.5127C88.9892 29.3004 89.4963 28.9761 89.9212 28.5603C90.3289 28.1247 90.6449 27.6132 90.8507 27.0554C91.0566 26.4976 91.1481 25.9048 91.12 25.3116C91.1568 24.4703 90.9234 23.6391 90.4533 22.9374C90.0178 22.3305 89.4578 21.8214 88.81 21.4434C88.1901 21.0901 87.3012 20.6963 86.1959 20.2157C85.22 19.8207 84.2707 19.3642 83.3537 18.8491C82.6248 18.4107 82.0035 17.8173 81.5349 17.1118C81.0233 16.2339 80.7777 15.2288 80.8273 14.2164C80.7895 13.4631 80.9121 12.7104 81.1872 12.0071C81.4622 11.3037 81.8835 10.6656 82.4238 10.1339C82.9783 9.61236 83.6334 9.20708 84.3499 8.94239C85.0665 8.6777 85.8296 8.55904 86.5935 8.59355C87.3608 8.56065 88.1267 8.68397 88.844 8.95589C89.5612 9.22781 90.2144 9.64254 90.7633 10.1744C91.2815 10.7032 91.6865 11.3302 91.9538 12.0178C92.2212 12.7055 92.3453 13.4395 92.3189 14.1759V14.3033C92.3189 14.6102 92.1844 14.7434 91.8744 14.7434H91.5177C91.2077 14.7434 91.0732 14.6102 91.0732 14.3033V14.1759C91.0983 13.5892 91.0012 13.0036 90.7879 12.4557C90.5746 11.9078 90.2497 11.4092 89.8334 10.9909C89.3959 10.5798 88.8797 10.2594 88.3153 10.0485C87.7508 9.83772 87.1496 9.74074 86.5468 9.76329C85.9572 9.73349 85.3679 9.82745 84.8176 10.039C84.2673 10.2506 83.7684 10.575 83.3537 10.9909C82.5403 11.8606 82.1091 13.0146 82.1548 14.199C82.1312 14.9778 82.3474 15.7453 82.7747 16.3996C83.1521 16.9957 83.6699 17.4925 84.2835 17.8473C85.0721 18.2854 85.8887 18.6723 86.7281 19.0054C87.7666 19.4183 88.7749 19.902 89.7457 20.4531C90.6055 20.9311 91.3141 21.6365 91.7923 22.4904C92.2705 23.3443 92.4994 24.3131 92.4534 25.2884C92.4909 26.0431 92.3676 26.7971 92.0915 27.5014C91.8154 28.2058 91.3928 28.8447 90.851 29.3768C90.2876 29.8986 89.6255 30.3049 88.9028 30.5722C88.1802 30.8395 87.4113 30.9627 86.6403 30.9345Z" fill="black"/>
<path d="M118.413 0.440098C118.413 0.133185 118.542 0 118.852 0H119.308C119.618 0 119.753 0.133185 119.753 0.440098V30.3207C119.753 30.6276 119.618 30.7608 119.308 30.7608H118.864C118.554 30.7608 118.425 30.6276 118.425 30.3207V16.1274C118.425 15.9942 118.378 15.9537 118.244 15.9537H108.337C108.202 15.9537 108.162 15.9942 108.162 16.1274V30.3207C108.162 30.6276 108.027 30.7608 107.717 30.7608H107.273C106.963 30.7608 106.828 30.6276 106.828 30.3207V0.440098C106.828 0.133185 106.963 0 107.273 0H107.717C108.027 0 108.162 0.133185 108.162 0.440098V14.587C108.162 14.7202 108.202 14.7666 108.337 14.7666H118.232C118.367 14.7666 118.413 14.7202 118.413 14.587V0.440098Z" fill="black"/>
<path d="M138.607 19.5961C138.607 19.9088 138.473 20.0362 138.163 20.0362H127.87C127.735 20.0362 127.689 20.0825 127.689 20.2157V24.7383C127.622 26.096 128.101 27.4246 129.022 28.4329C129.458 28.909 129.994 29.2852 130.592 29.5352C131.189 29.7853 131.835 29.9031 132.484 29.8806C133.562 29.8936 134.611 29.5377 135.455 28.873C136.296 28.1912 136.876 27.2451 137.098 26.1918C137.123 26.0804 137.185 25.9804 137.274 25.9079C137.363 25.8355 137.474 25.7947 137.589 25.7922H138.022C138.154 25.7892 138.282 25.8369 138.379 25.9254C138.437 26.0482 138.454 26.1864 138.426 26.3192C138.206 27.679 137.495 28.9135 136.426 29.7937C135.309 30.6821 133.91 31.1498 132.478 31.114C131.658 31.1428 130.841 30.9964 130.083 30.6846C129.325 30.3729 128.644 29.9031 128.086 29.3073C127.495 28.7041 127.035 27.9877 126.733 27.2021C126.431 26.4164 126.295 25.578 126.332 24.7383V14.7666C126.303 13.9278 126.443 13.0917 126.745 12.3073C127.046 11.5228 127.502 10.8056 128.086 10.1976C128.645 9.60254 129.326 9.13364 130.084 8.82286C130.842 8.51207 131.658 8.36671 132.478 8.39667C133.304 8.37201 134.126 8.5196 134.891 8.82986C135.656 9.14012 136.346 9.60611 136.917 10.1976C138.053 11.4482 138.656 13.0854 138.601 14.7666L138.607 19.5961ZM132.484 9.62432C131.839 9.60496 131.198 9.72026 130.602 9.96271C130.005 10.2052 129.467 10.5693 129.022 11.0315C128.107 12.0593 127.629 13.3977 127.689 14.7666V18.7217C127.689 18.8491 127.735 18.8954 127.87 18.8954H137.098C137.233 18.8954 137.274 18.8491 137.274 18.7217V14.7666C137.335 13.3985 136.859 12.0602 135.946 11.0315C135.501 10.5686 134.961 10.204 134.364 9.96152C133.766 9.71904 133.124 9.60414 132.478 9.62432H132.484Z" fill="black"/>
<path d="M150.303 8.57042C150.969 8.54488 151.63 8.69687 152.216 9.01052C152.266 9.03666 152.311 9.0725 152.347 9.11594C152.383 9.15939 152.41 9.20955 152.426 9.2635C152.443 9.31744 152.448 9.37408 152.442 9.43008C152.436 9.48608 152.419 9.54032 152.391 9.5896L152.216 10.1224C152.122 10.4293 151.947 10.4698 151.631 10.3366C151.141 10.124 150.61 10.0193 150.075 10.0297C149.426 10.0569 148.794 10.2444 148.236 10.5751C147.678 10.9058 147.213 11.3692 146.882 11.9233C145.99 13.3289 145.542 14.9662 145.596 16.6254V30.3323C145.596 30.6392 145.461 30.7724 145.151 30.7724H144.707C144.397 30.7724 144.262 30.6392 144.262 30.3323V9.19582C144.262 8.88891 144.397 8.75572 144.707 8.75572H145.151C145.461 8.75572 145.596 8.88891 145.596 9.19582V12.0507C145.596 12.1433 145.642 12.1839 145.683 12.1839C145.724 12.1839 145.771 12.1433 145.818 12.0102C146.194 11.021 146.821 10.1438 147.637 9.4622C148.398 8.87457 149.338 8.56017 150.303 8.57042Z" fill="black"/>
</g>
<defs>
<clipPath id="clip0">
<rect width="174" height="32" fill="white"/>
</clipPath>
</defs>
</svg>
